<?xml version="1.0" standalone="no"?>
<!DOCTYPE svg PUBLIC "-//W3C//DTD SVG 20010904//EN"
 "http://www.w3.org/TR/2001/REC-SVG-20010904/DTD/svg10.dtd">
<svg version="1.0" xmlns="http://www.w3.org/2000/svg"
 width="599.000000pt" height="600.000000pt" viewBox="0 0 599.000000 600.000000"
 preserveAspectRatio="xMidYMid meet">

<g transform="translate(0.000000,600.000000) scale(0.100000,-0.100000)"
fill="#000000" stroke="none">
<path d="M3640 4757 c-18 -9 -25 -21 -25 -41 0 -30 7 -36 68 -60 25 -10 37
-21 37 -34 0 -33 -57 -44 -84 -16 -9 8 -21 14 -28 12 -7 -3 -4 -12 10 -26 37
-37 117 -25 122 18 5 40 -2 49 -52 68 -56 21 -69 45 -35 66 13 8 24 7 47 -6
25 -14 30 -15 30 -2 0 8 -12 19 -26 24 -32 12 -34 12 -64 -3z"/>
<path d="M3909 4708 c-13 -37 -26 -65 -30 -62 -4 2 -10 23 -13 46 -4 24 -11
50 -16 58 -20 32 -19 -1 1 -89 12 -51 23 -90 25 -88 3 3 17 37 33 77 l27 72
28 -76 c16 -42 31 -75 33 -72 9 8 44 179 38 184 -10 10 -18 -7 -30 -65 l-12
-58 -17 40 c-9 22 -22 53 -30 70 l-13 29 -24 -66z"/>
<path d="M4911 4751 c-25 -25 -27 -44 -5 -62 14 -11 19 -10 35 10 23 28 24 44
5 60 -12 10 -19 8 -35 -8z"/>
<path d="M4140 4665 l0 -95 55 0 c30 0 55 5 55 10 0 6 -20 10 -45 10 -45 0
-45 0 -45 35 0 35 0 35 45 35 25 0 45 5 45 10 0 6 -20 10 -45 10 -43 0 -45 1
-45 30 0 29 2 30 45 30 25 0 45 5 45 10 0 6 -25 10 -55 10 l-55 0 0 -95z"/>
<path d="M4370 4665 l0 -95 55 0 c30 0 55 5 55 10 0 6 -20 10 -45 10 -45 0
-45 0 -45 35 0 35 0 35 45 35 25 0 45 5 45 10 0 6 -20 10 -45 10 -43 0 -45 1
-45 30 0 29 2 30 45 30 25 0 45 5 45 10 0 6 -25 10 -55 10 l-55 0 0 -95z"/>
<path d="M4580 4750 c0 -5 11 -10 25 -10 25 0 25 -1 25 -86 0 -54 4 -83 10
-79 6 3 10 42 10 86 0 72 2 79 20 79 11 0 20 5 20 10 0 6 -25 10 -55 10 -30 0
-55 -4 -55 -10z"/>
<path d="M4820 4730 c0 -30 24 -51 48 -43 15 6 16 45 0 61 -23 23 -48 14 -48
-18z"/>
<path d="M5090 4665 c0 -57 4 -95 10 -95 6 0 10 18 10 40 0 39 1 40 33 40 38
0 67 25 67 58 0 33 -27 52 -76 52 l-44 0 0 -95z m97 59 c10 -26 -11 -49 -46
-52 -30 -3 -31 -2 -31 32 0 34 2 36 35 36 24 0 38 -5 42 -16z"/>
<path d="M5312 4668 l3 -93 53 -3 c31 -2 52 1 52 7 0 6 -20 11 -45 11 -45 0
-45 0 -45 35 0 35 0 35 45 35 25 0 45 5 45 10 0 6 -20 10 -45 10 -43 0 -45 1
-45 30 0 29 2 30 45 30 25 0 45 5 45 10 0 6 -25 10 -55 10 l-56 0 3 -92z"/>
<path d="M5525 4750 c3 -5 15 -10 26 -10 17 0 19 -8 19 -85 0 -50 4 -85 10
-85 6 0 10 35 10 85 0 77 2 85 19 85 11 0 23 5 26 10 4 6 -17 10 -55 10 -38 0
-59 -4 -55 -10z"/>
<path d="M4760 4685 c0 -26 32 -50 56 -41 17 7 18 38 2 54 -7 7 -22 12 -35 12
-18 0 -23 -6 -23 -25z"/>
<path d="M4962 4698 c-17 -17 -15 -48 4 -55 9 -3 24 3 36 15 12 12 18 27 15
36 -7 19 -38 21 -55 4z"/>
<path d="M4860 4667 c-13 -7 -29 -24 -34 -39 -14 -40 4 -55 66 -54 52 1 53 2
56 32 2 25 -3 37 -24 53 -31 25 -31 25 -64 8z"/>
<path d="M5283 4415 c0 -33 2 -45 4 -27 2 18 2 45 0 60 -2 15 -4 0 -4 -33z"/>
<path d="M4190 4410 l0 -50 33 1 c30 2 30 2 5 6 -16 2 -28 10 -28 18 0 8 12
16 28 18 l27 4 -27 2 c-21 1 -28 6 -28 20 0 14 8 21 28 24 25 4 25 4 -5 6
l-33 1 0 -50z"/>
<path d="M4846 4414 c-10 -25 -16 -48 -12 -51 3 -4 6 -1 6 5 0 16 43 15 58 0
7 -7 12 -9 12 -6 0 9 -39 98 -42 98 -2 0 -11 -21 -22 -46z m34 -5 c0 -5 -4 -9
-10 -9 -5 0 -10 7 -10 16 0 8 5 12 10 9 6 -3 10 -10 10 -16z"/>
<path d="M4361 4438 c-1 -10 -7 -18 -13 -18 -10 0 -10 -2 -2 -8 7 -4 14 -18
17 -32 4 -25 4 -25 6 3 0 15 7 27 14 27 8 0 9 3 1 8 -6 4 -14 14 -17 22 -4 12
-6 11 -6 -2z"/>
<path d="M4509 4435 c-3 -11 -2 -33 2 -50 l7 -30 1 28 c0 15 7 27 14 27 8 0 9
3 1 8 -6 4 -13 14 -16 22 -3 11 -6 9 -9 -5z"/>
<path d="M4280 4406 c0 -8 7 -16 15 -20 21 -8 19 -27 -2 -19 -15 5 -16 3 -6
-7 10 -11 15 -11 28 0 21 17 19 27 -7 36 -22 7 -22 7 -3 15 19 7 19 8 -2 8
-13 1 -23 -5 -23 -13z"/>
<path d="M4414 4405 c-9 -23 3 -45 25 -45 26 0 45 32 29 48 -17 17 -48 15 -54
-3z m39 -2 c-7 -2 -19 -2 -25 0 -7 3 -2 5 12 5 14 0 19 -2 13 -5z m0 -30 c-7
-2 -19 -2 -25 0 -7 3 -2 5 12 5 14 0 19 -2 13 -5z"/>
<path d="M4562 4390 c0 -19 2 -27 5 -17 2 9 2 25 0 35 -3 9 -5 1 -5 -18z"/>
<path d="M4607 4413 c-23 -22 10 -67 41 -56 20 8 14 20 -10 19 -14 -1 -23 5
-23 14 0 9 9 15 23 14 12 0 22 3 22 8 0 10 -44 11 -53 1z"/>
<path d="M4694 4405 c-11 -27 4 -45 36 -45 27 0 30 3 30 30 0 27 -3 30 -30 30
-18 0 -33 -6 -36 -15z m46 -15 c0 -11 -6 -20 -14 -20 -18 0 -29 16 -21 30 11
18 35 11 35 -10z"/>
<path d="M4930 4390 c0 -16 5 -30 10 -30 6 0 10 11 10 25 0 34 28 32 33 -2 4
-26 4 -26 6 5 1 29 -2 32 -29 32 -27 0 -30 -3 -30 -30z"/>
<path d="M5022 4390 c0 -19 2 -27 5 -17 2 9 2 25 0 35 -3 9 -5 1 -5 -18z"/>
<path d="M5060 4391 c0 -17 5 -31 10 -31 6 0 10 12 10 26 0 32 22 27 31 -7 7
-24 7 -24 8 4 1 16 7 27 15 27 8 0 17 -12 19 -27 5 -27 5 -27 3 2 -1 28 -3 30
-48 33 -47 3 -48 3 -48 -27z"/>
<path d="M5186 4404 c-8 -21 -8 -20 9 -37 23 -24 55 -10 55 24 0 25 -4 29 -29
29 -17 0 -31 -6 -35 -16z m49 -14 c0 -8 -8 -16 -17 -18 -13 -2 -18 3 -18 18 0
15 5 20 18 18 9 -2 17 -10 17 -18z"/>
<path d="M2830 3304 c0 -14 -3 -14 -15 -4 -12 10 -15 9 -15 -8 0 -11 -7 -23
-16 -26 -10 -4 -13 -13 -9 -26 4 -13 2 -20 -6 -20 -7 0 -9 -3 -6 -6 4 -4 13
-1 21 5 15 12 36 7 36 -8 0 -4 -18 -15 -40 -24 -34 -13 -40 -13 -40 -1 0 8 -7
17 -15 20 -8 4 -13 10 -10 15 3 4 -3 6 -14 4 -15 -3 -19 1 -15 13 5 14 2 13
-10 -2 -9 -11 -16 -27 -17 -35 -5 -81 -3 -121 6 -146 15 -43 38 -75 52 -75 18
0 16 -19 -6 -59 -16 -31 -19 -32 -28 -16 -6 10 -8 26 -6 36 4 14 0 19 -16 19
-18 0 -21 -6 -21 -47 0 -41 4 -51 30 -72 23 -18 28 -27 19 -37 -11 -13 -9 -14
96 -29 l30 -5 -4 51 c-4 62 9 80 33 44 10 -14 15 -32 13 -38 -10 -27 13 -47
51 -46 20 1 29 3 20 6 -21 5 -21 7 -9 31 4 9 13 32 19 50 8 26 8 31 -1 24 -7
-5 -23 -5 -37 -1 -16 4 -19 7 -8 8 10 1 20 12 24 27 4 17 9 22 14 14 6 -9 14
-5 31 14 12 14 26 26 31 26 5 0 22 10 38 22 30 22 40 61 20 73 -5 3 -10 2 -10
-3 0 -5 -13 -8 -30 -6 -16 2 -30 -1 -30 -6 0 -6 -10 -5 -25 2 -20 9 -23 14
-13 31 8 16 7 23 -8 34 -23 17 -36 16 -60 -2 -19 -14 -18 -15 6 -35 l25 -20
-27 0 c-15 0 -42 -8 -60 -18 -18 -10 -39 -18 -45 -17 -7 2 -17 3 -23 4 -5 0
-10 7 -10 15 0 10 14 16 43 18 28 2 42 8 43 18 1 8 2 21 3 28 0 7 6 10 11 7 6
-3 10 4 10 18 0 21 4 24 31 21 25 -3 32 0 37 18 5 21 5 21 14 -2 8 -20 11 -22
19 -10 8 12 9 10 4 -6 -8 -30 17 -49 44 -34 34 18 27 55 -14 74 -19 10 -40 14
-46 11 -6 -4 -7 3 -3 22 l7 28 -22 -27 c-24 -30 -49 -36 -69 -16 -15 15 -16
32 -2 23 6 -3 10 -1 10 6 0 7 11 10 30 7 23 -3 30 -1 26 9 -3 7 -1 13 4 13 6
0 10 7 10 16 0 13 -7 15 -35 11 -21 -3 -33 -2 -30 4 4 5 -3 9 -14 9 -13 0 -21
-7 -21 -16z m161 -167 c-10 -9 -11 -8 -5 6 3 10 9 15 12 12 3 -3 0 -11 -7 -18z
m-241 -277 c0 -5 -4 -10 -10 -10 -5 0 -10 5 -10 10 0 6 5 10 10 10 6 0 10 -4
10 -10z"/>
<path d="M3010 3280 c0 -5 5 -10 11 -10 5 0 7 5 4 10 -3 6 -8 10 -11 10 -2 0
-4 -4 -4 -10z"/>
<path d="M2231 2666 c-16 -19 -5 -40 29 -53 17 -6 30 -16 30 -22 0 -18 -31
-25 -52 -12 -16 10 -19 10 -16 -1 3 -7 19 -13 39 -13 28 0 35 4 37 23 3 18 -3
26 -28 35 -36 14 -37 43 -2 40 14 -2 21 1 17 7 -9 14 -41 12 -54 -4z"/>
<path d="M2366 2630 c7 -71 18 -81 33 -30 13 45 26 45 36 0 10 -47 22 -44 30
6 3 26 9 53 13 62 3 9 1 13 -5 9 -6 -4 -14 -21 -18 -39 l-7 -33 -18 40 -17 40
-14 -44 -13 -45 -13 45 -13 44 6 -55z"/>
<path d="M2540 2620 l0 -60 33 1 c30 2 30 2 5 6 -38 6 -40 43 -3 43 14 0 25 5
25 10 0 6 -11 10 -25 10 -37 0 -35 37 3 43 25 4 25 4 -5 6 l-33 1 0 -60z"/>
<path d="M2677 2673 c-4 -3 -7 -30 -7 -60 l0 -53 38 1 c30 2 32 3 10 6 -38 6
-40 43 -2 43 14 0 23 4 19 10 -3 6 -15 10 -26 10 -32 0 -24 38 9 43 26 4 26 4
-4 6 -17 0 -34 -2 -37 -6z"/>
<path d="M2813 2668 c10 -8 17 -32 20 -63 l3 -50 2 57 c2 44 6 58 20 61 9 3
-1 5 -22 6 -34 1 -37 -1 -23 -11z"/>
<path d="M2944 2667 c-9 -25 3 -35 38 -33 26 1 34 6 36 24 4 25 -15 30 -25 7
-5 -14 -8 -14 -24 1 -17 15 -19 15 -25 1z"/>
<path d="M3107 2673 c-11 -10 -8 -113 3 -113 6 0 10 11 10 25 0 18 5 25 19 25
29 0 45 25 31 49 -10 20 -49 29 -63 14z m37 -9 c24 -9 20 -44 -4 -44 -15 0
-20 7 -20 25 0 27 1 28 24 19z"/>
<path d="M3240 2620 l0 -60 33 1 c30 2 30 2 5 6 -38 6 -40 43 -3 43 14 0 25 5
25 10 0 6 -11 10 -25 10 -37 0 -35 37 3 43 25 4 25 4 -5 6 l-33 1 0 -60z"/>
<path d="M3373 2673 c13 -3 17 -17 19 -61 l2 -57 3 50 c3 31 10 55 20 63 14
10 11 12 -23 11 -21 -1 -31 -3 -21 -6z"/>
<path d="M2910 2640 c-13 -8 -13 -11 2 -27 14 -13 20 -15 30 -5 17 17 -11 45
-32 32z"/>
<path d="M3020 2620 c0 -23 10 -26 28 -8 18 18 15 28 -8 28 -13 0 -20 -7 -20
-20z"/>
<path d="M2950 2605 c-19 -23 -4 -45 30 -45 18 0 33 6 36 15 8 19 -13 45 -36
45 -10 0 -23 -7 -30 -15z"/>
<path d="M2570 2465 c0 -30 3 -35 23 -34 16 1 18 2 5 6 -10 2 -18 8 -18 13 0
5 8 11 18 13 16 4 16 5 0 6 -10 0 -18 5 -18 10 0 5 8 12 18 14 13 4 11 5 -5 6
-20 1 -23 -4 -23 -34z"/>
<path d="M2976 2481 c4 -15 2 -21 -4 -17 -10 6 -26 -23 -17 -32 3 -3 5 0 5 6
0 16 27 15 33 0 4 -9 6 -8 6 2 0 8 -6 26 -15 40 -15 25 -15 25 -8 1z"/>
<path d="M3223 2465 c0 -22 2 -30 4 -17 2 12 2 30 0 40 -3 9 -5 -1 -4 -23z"/>
<path d="M2672 2460 c0 -19 2 -27 5 -17 2 9 2 25 0 35 -3 9 -5 1 -5 -18z"/>
<path d="M2762 2460 c0 -19 2 -27 5 -17 2 9 2 25 0 35 -3 9 -5 1 -5 -18z"/>
<path d="M2625 2470 c-4 -7 -2 -16 5 -20 10 -6 9 -9 -1 -13 -10 -4 -9 -6 3 -6
12 -1 17 5 15 19 -4 26 -13 34 -22 20z"/>
<path d="M2704 2466 c-7 -18 3 -36 19 -36 7 0 6 4 -3 10 -13 8 -12 10 3 10 10
0 17 5 15 12 -7 19 -27 21 -34 4z"/>
<path d="M2826 2472 c-3 -5 1 -9 9 -9 8 0 12 4 9 9 -3 4 -7 8 -9 8 -2 0 -6 -4
-9 -8z"/>
<path d="M2877 2473 c-15 -15 -7 -43 13 -43 14 0 20 6 19 23 -1 16 -2 18 -6 5
-2 -10 -9 -18 -15 -18 -6 0 -8 9 -5 20 5 21 4 24 -6 13z"/>
<path d="M3025 2469 c-5 -8 -4 -10 3 -5 8 5 12 -1 13 -16 1 -18 2 -19 6 -4 6
23 -12 43 -22 25z"/>
<path d="M3103 2473 c-7 -3 -13 -14 -12 -26 0 -21 1 -20 11 3 l11 25 7 -25 8
-25 2 25 2 25 9 -25 8 -25 -2 24 c-2 24 -19 33 -44 24z"/>
<path d="M3170 2465 c-15 -18 -5 -35 21 -35 12 0 19 7 19 19 0 24 -25 34 -40
16z m30 -16 c0 -5 -7 -9 -15 -9 -15 0 -20 12 -9 23 8 8 24 -1 24 -14z"/>
<path d="M2792 2450 c0 -14 2 -19 5 -12 2 6 2 18 0 25 -3 6 -5 1 -5 -13z"/>
<path d="M2820 2440 c0 -6 7 -10 15 -10 8 0 15 2 15 4 0 2 -7 6 -15 10 -8 3
-15 1 -15 -4z"/>
<path d="M1134 1543 c7 -16 -6 -17 -22 -1 -9 9 -12 7 -12 -11 0 -14 -7 -25
-20 -28 -22 -6 -26 -18 -10 -28 16 -10 12 -25 -7 -26 -12 0 -13 -2 -5 -6 7 -3
19 0 27 7 14 12 35 6 35 -10 0 -4 -20 -15 -44 -23 -35 -12 -44 -12 -40 -2 3 7
-4 15 -16 18 -12 3 -19 10 -16 15 4 6 -5 9 -19 7 -19 -2 -23 1 -15 10 7 9 7
14 -3 18 -16 6 -17 -7 -19 -140 l-2 -103 38 -35 39 -35 -18 -40 c-21 -47 -40
-47 -41 -2 0 18 -3 32 -7 32 -4 0 -13 0 -20 0 -9 0 -14 -16 -16 -49 -2 -45 1
-51 36 -81 24 -20 33 -34 26 -37 -26 -10 -12 -21 35 -27 26 -4 60 -9 76 -12
19 -4 26 -3 22 5 -9 14 -10 107 -1 121 9 14 45 -31 45 -57 1 -51 11 -63 54
-62 22 1 33 3 24 6 -21 5 -21 3 -4 44 29 71 29 77 2 74 -14 -2 -30 -6 -35 -10
-6 -3 -11 -2 -11 4 0 5 6 14 14 18 8 5 19 19 25 33 7 18 10 20 10 7 1 -15 6
-12 30 12 15 16 38 32 50 36 11 3 21 10 21 15 0 5 9 11 19 15 21 6 32 35 24
65 -5 18 -25 30 -22 13 3 -19 -3 -21 -31 -13 -23 7 -30 5 -30 -6 0 -8 -4 -14
-10 -14 -5 0 -10 5 -10 10 0 6 -7 10 -15 10 -13 0 -15 7 -10 34 6 30 4 34 -19
40 -47 12 -93 -34 -51 -50 8 -4 15 -11 15 -16 0 -6 -6 -8 -14 -5 -7 3 -19 0
-25 -6 -6 -6 -11 -7 -11 -3 0 4 -15 -1 -33 -13 -18 -11 -41 -18 -52 -16 -11 2
-23 4 -27 4 -5 1 -8 8 -8 16 0 8 3 15 8 16 4 1 22 2 40 4 40 3 69 24 50 37
-10 6 -7 10 10 14 21 6 23 11 18 38 -5 21 -3 27 4 20 21 -21 60 -3 75 33 22
53 19 68 -9 36 -21 -24 -27 -26 -52 -18 -15 6 -29 17 -31 25 -4 13 -3 13 6 0
9 -13 11 -13 11 2 0 20 19 28 42 17 18 -10 33 4 23 21 -3 6 0 10 8 10 10 0 13
7 10 19 -4 16 -10 17 -39 11 -19 -4 -34 -4 -34 0 0 5 -9 8 -20 7 -12 -1 -18
-7 -16 -14z m-42 -185 c-7 -7 -12 -8 -12 -2 0 14 12 26 19 19 2 -3 -1 -11 -7
-17z m-52 -309 c0 -5 -4 -9 -10 -9 -5 0 -10 7 -10 16 0 8 5 12 10 9 6 -3 10
-10 10 -16z"/>
<path d="M1330 1520 c0 -5 5 -10 11 -10 5 0 7 5 4 10 -3 6 -8 10 -11 10 -2 0
-4 -4 -4 -10z"/>
<path d="M1248 1428 c-8 -51 36 -98 72 -78 11 6 21 17 21 25 1 8 2 21 3 28 1
12 -57 46 -81 47 -6 0 -13 -10 -15 -22z m32 -32 c0 -3 -4 -8 -10 -11 -5 -3
-10 -1 -10 4 0 6 5 11 10 11 6 0 10 -2 10 -4z m36 -32 c-4 -9 -9 -15 -11 -12
-3 3 -3 13 1 22 4 9 9 15 11 12 3 -3 3 -13 -1 -22z"/>
<path d="M1450 1240 c0 -38 2 -40 31 -40 17 0 28 4 24 10 -3 6 -13 10 -21 10
-20 0 -18 18 4 23 16 4 16 5 0 6 -10 0 -18 5 -18 10 0 5 8 12 18 14 10 3 6 5
-10 6 -26 1 -28 -2 -28 -39z"/>
<path d="M1530 1249 c0 -7 8 -18 18 -25 16 -13 16 -14 0 -8 -10 3 -18 1 -18
-5 0 -15 37 -14 46 1 4 6 -1 17 -10 24 -13 9 -14 13 -4 17 7 3 3 6 -9 6 -13 1
-23 -4 -23 -10z"/>
<path d="M1598 1253 c6 -2 12 -16 12 -29 0 -34 17 -30 22 6 4 27 2 30 -21 29
-14 0 -20 -3 -13 -6z"/>
<path d="M1670 1230 c0 -25 4 -30 23 -30 21 1 21 1 2 12 -19 11 -19 11 0 19
20 7 20 8 0 9 l-20 1 20 9 c19 8 19 9 -2 9 -19 1 -23 -4 -23 -29z"/>
<path d="M1738 1248 c5 -7 12 -22 15 -33 4 -16 5 -14 6 7 0 14 7 29 14 31 6 3
-1 6 -17 6 -22 1 -26 -2 -18 -11z"/>
<path d="M1800 1230 c0 -16 5 -30 10 -30 6 0 10 14 10 30 0 17 -4 30 -10 30
-5 0 -10 -13 -10 -30z"/>
<path d="M1844 1245 c-13 -34 24 -63 42 -33 5 8 2 9 -9 5 -13 -5 -17 -1 -17
14 0 15 5 19 15 15 8 -3 15 -1 15 4 0 16 -40 11 -46 -5z"/>
<path d="M1920 1234 c-6 -14 -10 -27 -10 -28 0 -1 13 -3 29 -3 27 0 28 2 19
29 -12 35 -26 36 -38 2z"/>
<path d="M1510 1134 c-12 -36 -6 -59 10 -34 7 11 11 11 24 1 13 -11 16 -11 16
2 0 24 -18 67 -29 67 -5 0 -15 -16 -21 -36z m30 -4 c0 -5 -5 -10 -11 -10 -5 0
-7 5 -4 10 3 6 8 10 11 10 2 0 4 -4 4 -10z"/>
<path d="M1591 1118 c0 -27 2 -30 9 -13 7 18 8 19 15 3 11 -28 25 -21 25 12 0
30 -14 41 -23 18 -4 -10 -6 -10 -6 0 -2 28 -21 9 -20 -20z"/>
<path d="M1672 1120 c0 -19 2 -27 5 -17 2 9 2 25 0 35 -3 9 -5 1 -5 -18z"/>
<path d="M1711 1118 c1 -19 3 -25 6 -15 5 18 5 18 19 0 13 -17 13 -17 14 2 l1
20 9 -20 c7 -17 9 -15 9 13 1 17 -3 32 -9 32 -5 0 -10 -5 -10 -12 0 -9 -3 -9
-12 0 -20 20 -28 14 -27 -20z"/>
<path d="M1802 1122 c-9 -27 -8 -29 19 -29 16 0 29 2 29 3 0 14 -22 54 -29 54
-5 0 -13 -13 -19 -28z"/>
<path d="M1870 1120 c0 -23 4 -30 20 -30 11 0 20 5 20 10 0 6 -4 10 -10 10 -5
0 -10 9 -10 20 0 11 -4 20 -10 20 -5 0 -10 -13 -10 -30z"/>
<path d="M454 880 c-31 -13 -64 -59 -64 -90 0 -17 16 -49 40 -81 39 -52 48
-88 23 -96 -6 -3 -21 13 -32 34 l-20 38 -1 -46 c0 -42 3 -48 29 -59 77 -32
136 86 77 157 -35 42 -48 72 -41 93 12 38 35 15 35 -36 0 -42 32 -23 45 26 11
46 -42 81 -91 60z"/>
<path d="M310 816 c0 -8 4 -17 9 -20 5 -4 7 3 4 14 -6 23 -13 26 -13 6z"/>
<path d="M232 775 c0 -16 2 -22 5 -12 2 9 2 23 0 30 -3 6 -5 -1 -5 -18z"/>
<path d="M281 664 c0 -11 3 -14 6 -6 3 7 2 16 -1 19 -3 4 -6 -2 -5 -13z"/>
<path d="M755 663 c-15 -34 -16 -63 -3 -63 8 0 14 15 15 40 3 44 -1 50 -12 23z"/>
<path d="M251 644 c0 -11 3 -14 6 -6 3 7 2 16 -1 19 -3 4 -6 -2 -5 -13z"/>
<path d="M630 617 c0 -19 10 -27 26 -20 11 4 12 9 3 19 -15 18 -29 18 -29 1z"/>
<path d="M330 584 c0 -8 5 -12 10 -9 6 4 8 11 5 16 -9 14 -15 11 -15 -7z"/>
<path d="M378 549 c-25 -14 -23 -38 2 -32 14 4 19 1 15 -8 -20 -58 -64 -233
-59 -240 8 -13 26 -11 48 6 12 9 29 52 46 117 14 57 31 103 36 103 5 0 10 -19
12 -42 3 -35 -1 -47 -22 -67 -32 -29 -32 -36 -3 -36 35 0 64 26 82 75 32 82
-4 135 -89 135 -28 0 -59 -5 -68 -11z"/>
<path d="M650 479 c0 -5 5 -7 10 -4 6 3 10 8 10 11 0 2 -4 4 -10 4 -5 0 -10
-5 -10 -11z"/>
<path d="M625 380 c3 -5 11 -10 16 -10 6 0 7 5 4 10 -3 6 -11 10 -16 10 -6 0
-7 -4 -4 -10z"/>
<path d="M524 359 c-17 -28 -22 -79 -8 -90 14 -12 18 -7 15 23 -1 9 3 19 9 23
13 8 13 55 1 55 -6 0 -13 -5 -17 -11z"/>
<path d="M193 220 c-9 -34 -8 -42 8 -56 16 -14 19 -14 19 -3 0 8 -5 20 -12 27
-9 9 -9 12 0 12 6 0 9 7 5 17 -4 11 -3 14 5 9 16 -10 15 9 -1 22 -10 9 -15 3
-24 -28z"/>
<path d="M771 192 c-1 -36 21 -41 27 -7 2 10 0 15 -6 11 -6 -3 -13 2 -15 11
-3 10 -5 3 -6 -15z"/>
<path d="M236 168 c-7 -33 5 -55 23 -44 6 4 7 15 2 29 -4 12 -6 28 -4 35 3 6
0 12 -5 12 -5 0 -12 -14 -16 -32z"/>
<path d="M731 158 c0 -24 3 -37 6 -30 2 6 11 12 20 12 8 0 13 6 10 13 -2 6 -9
11 -15 10 -5 -1 -8 7 -5 17 3 11 0 20 -6 20 -6 0 -11 -17 -10 -42z"/>
<path d="M280 172 c0 -12 19 -26 26 -19 2 2 -2 10 -11 17 -9 8 -15 8 -15 2z"/>
<path d="M701 167 c-1 -10 -5 -15 -11 -12 -6 4 -10 -8 -10 -30 0 -33 2 -35 20
-25 21 11 23 20 10 60 -6 18 -8 20 -9 7z"/>
<path d="M320 138 c0 -7 -3 -23 -6 -35 -5 -19 -2 -23 16 -23 17 0 20 3 13 13
-6 6 -9 22 -8 35 1 12 -2 22 -7 22 -4 0 -8 -6 -8 -12z"/>
<path d="M651 118 c-1 -21 4 -38 9 -38 11 0 11 14 0 50 -7 22 -8 21 -9 -12z"/>
<path d="M280 123 c0 -13 5 -23 10 -23 13 0 13 11 0 30 -8 12 -10 11 -10 -7z"/>
<path d="M362 131 c4 -13 18 -16 19 -4 0 4 -5 9 -11 12 -7 2 -11 -2 -8 -8z"/>
<path d="M564 115 c4 -14 2 -25 -4 -25 -5 0 -10 -8 -10 -19 0 -16 5 -17 40
-11 23 4 43 10 46 13 9 9 -6 45 -21 51 -11 4 -15 -3 -15 -27 0 -24 -3 -28 -10
-17 -5 8 -10 25 -10 38 0 12 -5 22 -11 22 -7 0 -9 -10 -5 -25z"/>
<path d="M397 98 c-3 -18 -1 -37 4 -43 5 -5 9 8 9 33 0 50 -6 54 -13 10z"/>
<path d="M424 96 c-7 -28 2 -49 19 -43 7 2 22 0 35 -4 18 -7 22 -5 22 11 0 11
-4 20 -9 20 -5 0 -7 10 -5 23 3 17 1 16 -8 -5 -13 -31 -16 -32 -38 -17 -11 8
-12 12 -2 16 14 6 16 23 2 23 -5 0 -12 -11 -16 -24z"/>
<path d="M360 81 c0 -12 5 -21 10 -21 6 0 10 6 10 14 0 8 -4 18 -10 21 -5 3
-10 -3 -10 -14z"/>
</g>
</svg>
