<?xml version="1.0" standalone="no"?>
<!DOCTYPE svg PUBLIC "-//W3C//DTD SVG 20010904//EN"
 "http://www.w3.org/TR/2001/REC-SVG-20010904/DTD/svg10.dtd">
<svg version="1.0" xmlns="http://www.w3.org/2000/svg"
 width="999.000000pt" height="206.000000pt" viewBox="0 0 999.000000 206.000000"
 preserveAspectRatio="xMidYMid meet">

<g transform="translate(0.000000,206.000000) scale(0.100000,-0.100000)"
fill="#000000" stroke="none">
<path d="M1490 1695 c-93 -245 -137 -350 -142 -338 -4 10 -37 160 -73 333 -37
173 -68 316 -70 318 -1 2 -23 2 -47 0 l-45 -3 106 -492 c58 -271 109 -489 112
-485 4 4 71 178 149 387 78 209 144 384 147 389 3 5 72 -167 152 -382 81 -215
149 -394 152 -397 3 -2 40 158 83 358 42 199 90 422 105 495 l29 132 -47 0
-47 0 -68 -322 c-38 -178 -72 -329 -75 -335 -4 -7 -67 147 -141 342 -74 195
-137 355 -140 355 -3 0 -66 -160 -140 -355z"/>
<path d="M202 2001 c-113 -39 -172 -117 -172 -230 0 -138 69 -194 328 -265
159 -44 224 -88 238 -161 20 -111 -85 -195 -245 -195 -119 0 -192 35 -226 108
-19 42 -20 42 -73 42 -59 0 -58 1 -27 -75 34 -84 123 -138 255 -156 142 -19
277 18 349 96 92 100 81 273 -23 344 -43 30 -116 57 -296 111 -85 26 -111 39
-141 69 -42 42 -54 75 -45 126 16 86 96 129 228 124 101 -5 153 -28 181 -82
18 -35 22 -37 69 -37 46 0 49 1 43 23 -11 37 -59 100 -94 124 -80 54 -245 70
-349 34z"/>
<path d="M2630 1545 l0 -465 275 0 275 0 0 45 0 45 -225 0 -225 0 0 165 0 165
220 0 220 0 0 45 0 45 -220 0 -220 0 0 165 0 165 225 0 225 0 0 45 0 45 -275
0 -275 0 0 -465z"/>
<path d="M3760 1545 l0 -465 270 0 270 0 0 45 0 45 -225 0 -225 0 0 165 0 165
220 0 220 0 0 45 0 45 -220 0 -220 0 0 165 0 165 225 0 225 0 0 45 0 45 -270
0 -270 0 0 -465z"/>
<path d="M4800 1970 l0 -39 113 -3 112 -3 3 -422 2 -423 45 0 45 0 0 425 0
425 110 0 110 0 0 40 0 40 -270 0 -270 0 0 -40z"/>
<path d="M6485 1991 c-43 -19 -94 -72 -121 -122 -22 -43 -29 -128 -15 -172 42
-128 213 -89 280 63 43 100 33 186 -28 227 -41 28 -63 28 -116 4z"/>
<path d="M7310 1546 l0 -466 50 0 50 0 0 185 0 185 123 0 c151 0 207 15 271
71 72 63 91 107 91 209 0 68 -5 93 -22 125 -27 50 -75 96 -133 126 -42 22 -59
24 -237 27 l-193 4 0 -466z m400 352 c109 -55 132 -199 47 -295 -48 -54 -79
-63 -222 -63 l-125 0 0 190 0 190 128 0 c113 0 133 -3 172 -22z"/>
<path d="M8400 1545 l0 -465 275 0 275 0 0 45 0 45 -230 0 -230 0 0 165 0 165
220 0 220 0 0 45 0 45 -220 0 -220 0 0 165 0 165 230 0 230 0 0 45 0 45 -275
0 -275 0 0 -465z"/>
<path d="M9450 1970 l0 -40 110 0 110 0 0 -425 0 -425 45 0 45 0 2 423 3 422
113 3 112 3 0 39 0 40 -270 0 -270 0 0 -40z"/>
<path d="M6029 1985 c-36 -20 -59 -73 -59 -138 0 -103 81 -212 167 -224 140
-19 189 175 77 305 -59 70 -125 90 -185 57z"/>
<path d="M5740 1732 c-74 -36 -87 -128 -31 -211 89 -134 265 -146 302 -21 24
79 -34 185 -124 229 -53 26 -101 27 -147 3z"/>
<path d="M6760 1724 c-98 -42 -169 -169 -137 -245 23 -54 52 -74 106 -73 126
2 238 147 201 259 -22 66 -95 91 -170 59z"/>
<path d="M6225 1546 c-22 -7 -51 -18 -64 -25 -45 -25 -113 -95 -139 -146 -49
-94 -28 -259 37 -295 27 -14 86 -13 173 4 64 12 85 12 149 0 81 -15 167 -18
186 -6 39 25 59 186 34 277 -15 55 -98 147 -163 179 -59 29 -143 34 -213 12z"/>
<path d="M8290 290 l0 -280 25 0 25 0 0 280 0 280 -25 0 -25 0 0 -280z"/>
<path d="M6247 534 c-7 -12 -207 -513 -207 -519 0 -3 11 -5 24 -5 21 0 28 10
52 70 l27 71 111 -3 111 -3 25 -67 c22 -61 28 -68 52 -68 l28 0 -19 48 c-85
214 -184 459 -191 471 -4 7 -10 10 -13 5z m90 -331 c-3 -2 -42 -3 -89 -1 l-84
3 45 114 44 115 44 -113 c24 -63 42 -116 40 -118z"/>
<path d="M2920 265 l0 -255 145 0 145 0 0 25 0 25 -120 0 -120 0 0 90 0 90
120 0 120 0 0 25 0 25 -120 0 -120 0 0 90 0 90 120 0 120 0 0 25 0 25 -145 0
-145 0 0 -255z"/>
<path d="M4157 465 c-24 -49 -25 -55 -9 -55 15 0 92 88 92 105 0 3 -13 5 -28
5 -24 0 -32 -8 -55 -55z"/>
<path d="M3760 406 l0 -66 -40 0 c-36 0 -40 -2 -40 -25 0 -22 4 -25 40 -25
l40 0 0 -140 0 -140 25 0 25 0 0 140 0 140 40 0 c36 0 40 3 40 25 0 22 -4 25
-40 25 l-39 0 -3 63 c-3 56 -5 62 -25 65 -22 3 -23 0 -23 -62z"/>
<path d="M4500 406 l0 -66 -40 0 c-36 0 -40 -2 -40 -25 0 -22 4 -25 40 -25
l40 0 0 -140 0 -140 25 0 25 0 0 139 0 140 38 3 c29 2 37 7 37 23 0 16 -8 21
-37 23 l-37 3 -3 62 c-3 56 -5 62 -25 65 -22 3 -23 0 -23 -62z"/>
<path d="M4751 447 c-17 -21 -3 -49 23 -45 15 2 21 10 21 28 0 28 -26 38 -44
17z"/>
<path d="M7004 446 c-10 -26 4 -48 28 -44 17 2 23 10 23 28 0 18 -6 26 -23 28
-13 2 -25 -3 -28 -12z"/>
<path d="M3423 339 c-62 -18 -92 -88 -58 -136 9 -12 43 -31 82 -44 81 -26 93
-34 93 -65 0 -57 -102 -71 -136 -19 -14 22 -64 37 -64 20 0 -23 37 -69 65 -81
44 -18 75 -18 125 2 47 19 60 38 60 88 0 46 -25 71 -91 90 -89 27 -121 60 -87
94 20 20 83 15 103 -8 18 -20 65 -28 65 -11 0 21 -44 61 -78 71 -20 5 -39 10
-42 9 -3 0 -19 -5 -37 -10z"/>
<path d="M4109 341 c-43 -14 -67 -30 -90 -62 -82 -115 -5 -269 135 -269 32 0
60 7 82 21 33 20 64 55 64 71 0 17 -43 7 -74 -17 -22 -17 -46 -25 -72 -25 -55
0 -113 42 -114 83 0 15 13 17 140 17 156 0 150 -3 130 71 -12 42 -51 82 -102
103 -41 17 -59 18 -99 7z m108 -66 c12 -8 30 -29 38 -45 l16 -30 -116 0 c-73
0 -115 4 -115 10 0 22 35 63 65 76 34 16 78 11 112 -11z"/>
<path d="M5495 340 c-102 -22 -154 -143 -105 -244 42 -88 139 -116 219 -63
l41 27 0 -25 c0 -20 5 -25 25 -25 l25 0 0 165 0 165 -25 0 c-20 0 -25 -5 -25
-26 l0 -25 -31 22 c-37 26 -84 37 -124 29z m105 -69 c14 -10 31 -36 39 -58 13
-35 13 -46 0 -78 -19 -52 -59 -80 -111 -79 -35 1 -48 8 -76 39 -31 34 -34 41
-30 86 10 99 100 144 178 90z"/>
<path d="M7308 326 c-36 -24 -38 -24 -38 -6 0 15 -7 20 -25 20 l-25 0 0 -165
0 -165 25 0 25 0 0 103 c0 114 17 159 66 177 36 14 42 13 69 -15 24 -23 25
-30 25 -145 l0 -120 25 0 25 0 0 119 0 119 31 26 c36 31 59 33 90 7 23 -18 24
-27 27 -145 3 -116 5 -126 23 -126 18 0 19 9 19 135 l0 135 -29 32 c-25 28
-36 33 -75 33 -35 0 -51 -6 -73 -27 l-29 -28 -25 25 c-38 38 -86 42 -131 11z"/>
<path d="M7922 340 c-116 -27 -156 -188 -71 -285 54 -61 136 -67 203 -14 l26
20 0 -25 c0 -21 5 -26 25 -26 l25 0 0 165 0 165 -25 0 c-20 0 -25 -5 -25 -25
l0 -24 -36 24 c-20 14 -43 25 -50 25 -7 0 -18 2 -26 4 -7 2 -28 0 -46 -4z
m108 -69 c37 -26 51 -60 47 -110 -12 -120 -167 -145 -214 -34 -27 66 7 144 70
162 38 11 63 6 97 -18z"/>
<path d="M4750 175 l0 -165 25 0 25 0 0 165 0 165 -25 0 -25 0 0 -165z"/>
<path d="M5024 321 c-123 -75 -106 -254 30 -306 36 -14 50 -15 86 -5 46 13
110 67 110 94 0 26 -39 19 -72 -14 -52 -53 -138 -38 -173 30 -52 100 47 205
149 158 14 -6 33 -22 41 -35 14 -21 65 -34 65 -15 0 19 -43 74 -72 92 -43 26
-122 27 -164 1z"/>
<path d="M6580 175 l0 -165 25 0 c25 0 25 1 25 83 0 143 29 197 106 197 33 0
46 -5 54 -19 5 -11 10 -74 10 -140 l0 -121 25 0 25 0 0 125 c0 173 -18 205
-114 205 -33 0 -52 -6 -75 -26 l-31 -26 0 26 c0 21 -5 26 -25 26 l-25 0 0
-165z"/>
<path d="M7010 176 l0 -166 25 0 25 0 -2 163 c-3 159 -3 162 -25 165 l-23 3 0
-165z"/>
</g>
</svg>
